<?xml version="1.0"?><svg xmlns="http://www.w3.org/2000/svg" viewBox="0 0 100 100"><g><path fill="#CCC" stroke="#000" stroke-width="3" stroke-linecap="round" stroke-linejoin="round" stroke-miterlimit="10" d="M65.927 8.428c-4.139.385-7.715 2.301-9.03 3.02-3.576 1.954-6.19 4.316-7.678 5.809L37.427 29.389c-.814.838-1.006 1.971-.429 2.532.577.561-3.845 5.11-4.422 4.549-.577-.561-1.705-.336-2.519.501l-6.633 6.824 8.358 8.123 6.633-6.824c.814-.838 1.006-1.971.429-2.532l-.522-.508c-.577-.561 3.845-5.11 4.422-4.549l.522.508 4.179 4.062L57.763 31.46l-3.97-3.859 2.002-2.478c1.886-2.37 4.745-5.451 8.629-7.833 6.392-3.919 11.092-3.203 11.763-4.787.749-1.766-4.253-4.634-10.26-4.075z"/><path fill="gray" stroke="#000" stroke-width="3.0000599999999995" stroke-linecap="round" stroke-linejoin="round" stroke-miterlimit="10" d="M51.386 45.903l10.318-10.616 27.953 27.17-10.318 10.615z"/></g><g><path fill="#FCE9F2" stroke="#000" stroke-width="3" stroke-linecap="round" stroke-linejoin="round" stroke-miterlimit="10" d="M48.264 74.013c0-8.068-7.846-14.608-17.526-14.608-7.301 0-13.557 3.722-16.192 9.014h-1.821c-1.315 0-2.381 1.048-2.381 2.342v5.884c0 1.293 1.066 2.342 2.381 2.342h1.532c1.086 2.498 2.962 4.68 5.382 6.332l-1.165 4.228 8.001 2.097 1.075-3.954c.765.36 1.846.76 3.186.932 2.54.327 4.575-.347 5.576-.76l1.042 3.781 8.001-2.097-1.588-5.766c2.795-2.588 4.497-6.011 4.497-9.767z"/><path fill="#EF66B2" stroke="#000" stroke-width="3" stroke-linecap="round" stroke-linejoin="round" stroke-miterlimit="10" d="M23.443 57.98a4.9 4.9 0 0 0-6.892.705l7.598 6.187a4.9 4.9 0 0 0-.706-6.892z"/><circle transform="rotate(-45.001 21.088 69.569)" stroke="#000" stroke-width=".25" stroke-linecap="round" stroke-linejoin="round" stroke-miterlimit="10" cx="21.089" cy="69.568" r="1.742"/><path fill="none" stroke="#000" stroke-width="3" stroke-linecap="round" stroke-linejoin="round" stroke-miterlimit="10" d="M48.472 73.6c.959-1.616 2.696-2.638 4.493-3.187.974-.297 2.157-.43 2.898.268.619.584.69 1.576.403 2.377-.29.809-.975 1.534-1.831 1.617-.767.075-1.526-.395-1.918-1.059-.392-.664-.453-1.486-.301-2.241.322-1.598 1.613-2.959 3.191-3.365.504-.13 1.103-.124 1.552.097"/><path fill="none" stroke="#000" stroke-width="3" stroke-linecap="round" stroke-linejoin="round" stroke-miterlimit="10" d="M39.085 76.04l-8.006-2.976 4.95-6.799-3.032-5.872"/></g><metadata xmlns:d="https://loading.io/stock/">
<d:name>hammer</d:name>
<d:tags>hammer,moneybox,piggy bank,break,shatter,disillusionment</d:tags>
<d:license>by</d:license>
<d:slug>pl8hu5</d:slug>
</metadata></svg>