<?xml version="1.0" encoding="utf-8"?>
<svg xmlns="http://www.w3.org/2000/svg" width="365" height="365" style="width: 365px; height: 365px; background: rgba(255, 255, 255, 0); shape-rendering: auto;"><path></path><g class="layer" transform="matrix(1 0 0 1 30 57) matrix(2.0764787197113037 0 0 2.0764811038970947 33.69465255737305 28.359764099121094)"><g class="ani" style="transform-origin: 59.3px 42.7px; opacity: 1; animation: 1s linear -0.32s infinite normal forwards running blink-fe3dd9b3-bb3e-4f9a-bbb0-72e3fbce6b71;"><path fill="#F7E75D" d="M63.5,47c0.1-0.1,0.1-0.2,0.2-0.3c0.3-0.5,0.7-1,1.2-1.4l-9.7-7.1c-0.3,0.5-0.6,1-1,1.5
	c-0.2,0.2-0.3,0.4-0.5,0.6l9.5,6.9C63.4,47.2,63.5,47.1,63.5,47z" style="fill: rgb(247, 231, 93); pointer-events: all;"></path></g></g><g class="layer" transform="matrix(1 0 0 1 30 57) matrix(2.0764787197113037 0 0 2.0764811038970947 33.69465255737305 28.359764099121094)"><g class="ani" style="transform-origin: 57.0008px 46.2903px; opacity: 1; animation: 1s linear -0.28s infinite normal forwards running blink-fe3dd9b3-bb3e-4f9a-bbb0-72e3fbce6b71;"><path fill="#6A6966" d="M54,49.5c2.5,2,6.1,1.6,8.2-0.8l-9.5-6.9c0,0,0,0,0,0.1C51.1,44.3,51.7,47.7,54,49.5z" style="fill: rgb(106, 105, 102); pointer-events: all;"></path></g></g><g class="layer" transform="matrix(1 0 0 1 30 57) matrix(2.0764787197113037 0 0 2.0764811038970947 33.69465255737305 28.359764099121094)"><g class="ani" style="transform-origin: 65.6293px 33.9726px; opacity: 1; animation: 1s linear -0.24s infinite normal forwards running blink-fe3dd9b3-bb3e-4f9a-bbb0-72e3fbce6b71;"><path fill="#FCD20D" d="M68.5,42.2c2-0.6,3.7-1.8,4.9-3.4c3.1-4.3,2-10.3-2.5-13.2c-3.8-2.5-9-1.7-12,1.8c-1.5,1.7-2.3,4-2.2,6.3
	c0,1-0.2,2-0.6,3l9.7,7.1C66.5,43,67.5,42.5,68.5,42.2z" style="fill: rgb(252, 210, 13); pointer-events: all;"></path></g></g><g class="layer" transform="matrix(1 0 0 1 30 57) matrix(2.0764787197113037 0 0 2.0764811038970947 33.69465255737305 28.359764099121094)"><g class="ani" style="transform-origin: 65.9589px 32.9727px; opacity: 1; animation: 1s linear -0.2s infinite normal forwards running blink-fe3dd9b3-bb3e-4f9a-bbb0-72e3fbce6b71;"><g style="pointer-events: all;">
	
	
<g class="layer" transform="matrix(0.9999999999999999 0 0 1 0 0) matrix(1 0 0 1 0 0)"><g class="ani"><ellipse transform="matrix(0.591 -0.8067 0.8067 0.591 0.3318 66.7119)" fill="#F8EAA3" cx="66" cy="33" rx="5.7" ry="5.7" style="cx: 66px; cy: 33px; fill: rgb(248, 234, 163); pointer-events: all; rx: 5.7px; ry: 5.7px;"></ellipse></g></g><g class="layer" transform="matrix(0.9999999999999999 0 0 1 0 0) matrix(1 0 0 1 0 0)"><g class="ani"><g style="pointer-events: all;">
		
			
		
			
		
			
	<g class="layer" transform="matrix(0.9999999999999999 0 0 1 0 0) matrix(1 0 0 1 0 0)"><g class="ani"><path fill="none" stroke="#000000" stroke-width="1.4" stroke-linecap="round" stroke-linejoin="round" stroke-miterlimit="10" d="
			M63.1,33.3c-0.3,0.7,0,1.6,0.9,2.2c0.9,0.7,2,0.7,2.5,0c0.5-0.7,0.1-1.7-0.8-2.4c-0.9-0.7-1.2-1.7-0.8-2.4c0.5-0.7,1.6-0.7,2.5,0
			c0.9,0.7,1.2,1.7,0.8,2.4" style="fill: none; pointer-events: all; stroke: rgb(0, 0, 0); stroke-linecap: round; stroke-linejoin: round; stroke-miterlimit: 10; stroke-width: 1.4px;"></path></g></g><g class="layer" transform="matrix(0.9999999999999999 0 0 1 0 0) matrix(1 0 0 1 0 0)"><g class="ani"><path fill="none" stroke="#000000" stroke-width="1.4" stroke-linecap="round" stroke-linejoin="round" stroke-miterlimit="10" d="
			M64,35.6l-0.8,1.1" style="fill: none; pointer-events: all; stroke: rgb(0, 0, 0); stroke-linecap: round; stroke-linejoin: round; stroke-miterlimit: 10; stroke-width: 1.4px;"></path></g></g><g class="layer" transform="matrix(1 0 0 1 0 0)"><g class="ani"><path fill="none" stroke="#000000" stroke-width="1.4" stroke-linecap="round" stroke-linejoin="round" stroke-miterlimit="10" d="
			M68.3,29.7l-0.7,1" style="fill: none; pointer-events: all; stroke: rgb(0, 0, 0); stroke-linecap: round; stroke-linejoin: round; stroke-miterlimit: 10; stroke-width: 1.4px;"></path></g></g></g></g></g></g></g></g><g class="layer" transform="matrix(1 0 0 1 30 57) matrix(2.0764787197113037 0 0 2.0764811038970947 33.69465255737305 28.359764099121094)"><g class="ani" style="transform-origin: 82.35px 34.1px; opacity: 1; animation: 1s linear -0.16s infinite normal forwards running blink-fe3dd9b3-bb3e-4f9a-bbb0-72e3fbce6b71;"><path fill="none" stroke="#FCD20D" stroke-width="1.4" stroke-linecap="round" stroke-linejoin="round" stroke-miterlimit="10" d="
	M79.5,33.8l5.7,0.6" style="fill: none; pointer-events: all; stroke: rgb(252, 210, 13); stroke-linecap: round; stroke-linejoin: round; stroke-miterlimit: 10; stroke-width: 1.4px;"></path></g></g><g class="layer" transform="matrix(1 0 0 1 30 57) matrix(2.0764787197113037 0 0 2.0764811038970947 33.69465255737305 28.359764099121094)"><g class="ani" style="transform-origin: 81.4px 26.05px; opacity: 1; animation: 1s linear -0.12s infinite normal forwards running blink-fe3dd9b3-bb3e-4f9a-bbb0-72e3fbce6b71;"><path fill="none" stroke="#FCD20D" stroke-width="1.4" stroke-linecap="round" stroke-linejoin="round" stroke-miterlimit="10" d="
	M78.8,27.2l5.2-2.3" style="fill: none; pointer-events: all; stroke: rgb(252, 210, 13); stroke-linecap: round; stroke-linejoin: round; stroke-miterlimit: 10; stroke-width: 1.4px;"></path></g></g><g class="layer" transform="matrix(1 0 0 1 30 57) matrix(2.0764787197113037 0 0 2.0764811038970947 33.69465255737305 28.359764099121094)"><g class="ani" style="transform-origin: 76.5px 19.6px; opacity: 1; animation: 1s linear -0.08s infinite normal forwards running blink-fe3dd9b3-bb3e-4f9a-bbb0-72e3fbce6b71;"><path fill="none" stroke="#FCD20D" stroke-width="1.4" stroke-linecap="round" stroke-linejoin="round" stroke-miterlimit="10" d="
	M74.8,21.9l3.4-4.6" style="fill: none; pointer-events: all; stroke: rgb(252, 210, 13); stroke-linecap: round; stroke-linejoin: round; stroke-miterlimit: 10; stroke-width: 1.4px;"></path></g></g><g class="layer" transform="matrix(1 0 0 1 30 57) matrix(2.0764787197113037 0 0 2.0764811038970947 33.69465255737305 28.359764099121094)"><g class="ani" style="transform-origin: 69.1px 16.45px; opacity: 1; animation: 1s linear -0.04s infinite normal forwards running blink-fe3dd9b3-bb3e-4f9a-bbb0-72e3fbce6b71;"><path fill="none" stroke="#FCD20D" stroke-width="1.4" stroke-linecap="round" stroke-linejoin="round" stroke-miterlimit="10" d="
	M68.8,19.3l0.6-5.7" style="fill: none; pointer-events: all; stroke: rgb(252, 210, 13); stroke-linecap: round; stroke-linejoin: round; stroke-miterlimit: 10; stroke-width: 1.4px;"></path></g></g><g class="layer" transform="matrix(1 0 0 1 30 57) matrix(2.0764787197113037 0 0 2.0764811038970947 33.69465255737305 28.359764099121094)"><g class="ani" style="transform-origin: 61.05px 17.4px; opacity: 1; animation: 1s linear 0s infinite normal forwards running blink-fe3dd9b3-bb3e-4f9a-bbb0-72e3fbce6b71;"><path fill="none" stroke="#FCD20D" stroke-width="1.4" stroke-linecap="round" stroke-linejoin="round" stroke-miterlimit="10" d="
	M62.2,20l-2.3-5.2" style="fill: none; pointer-events: all; stroke: rgb(252, 210, 13); stroke-linecap: round; stroke-linejoin: round; stroke-miterlimit: 10; stroke-width: 1.4px;"></path></g></g><g class="layer" transform="matrix(1 0 0 1 30 57) matrix(2.0764787197113037 0 0 2.0764811038970947 33.69465255737305 28.359764099121094)"><g class="ani" style="transform-origin: 41.35px 63.8826px; transform: matrix(1, 0, 0, 1, 0, 0); animation: 1s linear 0s infinite normal forwards running bounce-3a5b7959-d9dd-4d06-af13-6384f867bc6d;"><g style="pointer-events: all;">
	
		
	
		
	
		
	
	
<g class="layer" transform="matrix(0.9999999999999999 0 0 1 0 0) matrix(1 0 0 1 0 0)"><g class="ani"><path fill="#FCE9F2" stroke="#000000" stroke-width="1.4" stroke-linecap="round" stroke-linejoin="round" stroke-miterlimit="10" d="
		M55.2,67.1c0-7.7-7.5-13.9-16.7-13.9c-6.9,0-12.9,3.5-15.4,8.6h-1.7c-1.3,0-2.3,1-2.3,2.2v5.6c0,1.2,1,2.2,2.3,2.2h1.5
		c1,2.4,2.8,4.5,5.1,6l-1.1,4l7.6,2l1-3.8c1,0.5,2,0.8,3,0.9c1.8,0.2,3.6,0,5.3-0.7l1,3.6l7.6-2l-1.5-5.5
		C53.6,73.9,55.2,70.6,55.2,67.1z" style="fill: rgb(252, 233, 242); pointer-events: all; stroke: rgb(0, 0, 0); stroke-linecap: round; stroke-linejoin: round; stroke-miterlimit: 10; stroke-width: 1.4px;"></path></g></g><g class="layer" transform="matrix(0.9999999999999999 0 0 1 0 0) matrix(1 0 0 1 0 0)"><g class="ani"><path fill="#FFFFFF" stroke="#000000" stroke-width="1.4" stroke-linecap="round" stroke-linejoin="round" stroke-miterlimit="10" d="
		M43.3,58.7c-1.5-0.8-3-1.2-4.5-0.9c-0.3,0-0.6,0.1-0.9,0.2" style="fill: rgb(255, 255, 255); pointer-events: all; stroke: rgb(0, 0, 0); stroke-linecap: round; stroke-linejoin: round; stroke-miterlimit: 10; stroke-width: 1.4px;"></path></g></g><g class="layer" transform="matrix(0.9999999999999999 0 0 1 0 0) matrix(1 0 0 1 0 0)"><g class="ani"><path fill="#EF66B2" stroke="#000000" stroke-width="1.4" stroke-linecap="round" stroke-linejoin="round" stroke-miterlimit="10" d="
		M31.6,51.8c-2-1.6-4.9-1.3-6.6,0.7l7.2,5.9C33.9,56.4,33.6,53.5,31.6,51.8L31.6,51.8z" style="fill: rgb(239, 102, 178); pointer-events: all; stroke: rgb(0, 0, 0); stroke-linecap: round; stroke-linejoin: round; stroke-miterlimit: 10; stroke-width: 1.4px;"></path></g></g><g class="layer" transform="matrix(0.9999999999999999 0 0 1 0 0) matrix(1 0 0 1 0 0)"><g class="ani"><ellipse transform="matrix(0.7071 -0.7071 0.7071 0.7071 -35.8415 39.1696)" cx="29.4" cy="62.8" rx="1.7" ry="1.7" style="cx: 29.4px; cy: 62.8px; pointer-events: all; rx: 1.7px; ry: 1.7px;"></ellipse></g></g><g class="layer" transform="matrix(0.9999999999999999 0 0 1 0 0) matrix(1 0 0 1 0 0)"><g class="ani"><path fill="none" stroke="#000000" stroke-width="1.4" stroke-linecap="round" stroke-linejoin="round" stroke-miterlimit="10" d="
		M55.4,66.7c0.9-1.5,2.6-2.5,4.3-3c0.9-0.3,2.1-0.4,2.8,0.3c0.6,0.6,0.7,1.5,0.4,2.3c-0.3,0.8-0.9,1.5-1.7,1.5
		c-0.7,0.1-1.5-0.4-1.8-1c-0.4-0.6-0.4-1.4-0.3-2.1c0.3-1.6,1.5-2.8,3-3.2c0.5-0.1,1-0.1,1.5,0.1" style="fill: none; pointer-events: all; stroke: rgb(0, 0, 0); stroke-linecap: round; stroke-linejoin: round; stroke-miterlimit: 10; stroke-width: 1.4px;"></path></g></g></g></g></g><style id="bounce-685e0825-da2b-4d0b-b590-22f9de4d2801" data-anikit="">@keyframes bounce-685e0825-da2b-4d0b-b590-22f9de4d2801
{
  0% {
    animation-timing-function: cubic-bezier(0.1361,0.2514,0.2175,0.8786);
    transform: translate(0,0px) scaleY(1);
  }
  37% {
    animation-timing-function: cubic-bezier(0.7674,0.1844,0.8382,0.7157);
    transform: translate(0,-3.996px) scaleY(1);
  }
  72% {
    animation-timing-function: cubic-bezier(0.2671,0.5147,0.5115,0.9776);
    transform: translate(0,0px) scaleY(1);
  }
  87% {
    animation-timing-function: cubic-bezier(0.4769,0.1313,0.7292,0.5404);
    transform: translate(0,2.9429999999999996px) scaleY(0.891);
  }
  100% {
    transform: translate(0,0px) scaleY(1);
  }
}</style><style id="blink-fe3dd9b3-bb3e-4f9a-bbb0-72e3fbce6b71" data-anikit="">@keyframes blink-fe3dd9b3-bb3e-4f9a-bbb0-72e3fbce6b71 {
  0% { opacity: 1; }
  49.75% { opacity: 1; }
  50.24999999999999% { opacity: 0; }
  99.5% { opacity: 0; }
  100% { opacity: 1; }
}</style><style id="blink-fe3dd9b3-bb3e-4f9a-bbb0-72e3fbce6b71" data-anikit="">@keyframes blink-fe3dd9b3-bb3e-4f9a-bbb0-72e3fbce6b71 {
  0% { opacity: 1; }
  49.75% { opacity: 1; }
  50.24999999999999% { opacity: 0; }
  99.5% { opacity: 0; }
  100% { opacity: 1; }
}</style><style id="blink-fe3dd9b3-bb3e-4f9a-bbb0-72e3fbce6b71" data-anikit="">@keyframes blink-fe3dd9b3-bb3e-4f9a-bbb0-72e3fbce6b71 {
  0% { opacity: 1; }
  49.75% { opacity: 1; }
  50.24999999999999% { opacity: 0; }
  99.5% { opacity: 0; }
  100% { opacity: 1; }
}</style><style id="blink-fe3dd9b3-bb3e-4f9a-bbb0-72e3fbce6b71" data-anikit="">@keyframes blink-fe3dd9b3-bb3e-4f9a-bbb0-72e3fbce6b71 {
  0% { opacity: 1; }
  49.75% { opacity: 1; }
  50.24999999999999% { opacity: 0; }
  99.5% { opacity: 0; }
  100% { opacity: 1; }
}</style><style id="blink-fe3dd9b3-bb3e-4f9a-bbb0-72e3fbce6b71" data-anikit="">@keyframes blink-fe3dd9b3-bb3e-4f9a-bbb0-72e3fbce6b71 {
  0% { opacity: 1; }
  49.75% { opacity: 1; }
  50.24999999999999% { opacity: 0; }
  99.5% { opacity: 0; }
  100% { opacity: 1; }
}</style><style id="blink-fe3dd9b3-bb3e-4f9a-bbb0-72e3fbce6b71" data-anikit="">@keyframes blink-fe3dd9b3-bb3e-4f9a-bbb0-72e3fbce6b71 {
  0% { opacity: 1; }
  49.75% { opacity: 1; }
  50.24999999999999% { opacity: 0; }
  99.5% { opacity: 0; }
  100% { opacity: 1; }
}</style><style id="blink-fe3dd9b3-bb3e-4f9a-bbb0-72e3fbce6b71" data-anikit="">@keyframes blink-fe3dd9b3-bb3e-4f9a-bbb0-72e3fbce6b71 {
  0% { opacity: 1; }
  49.75% { opacity: 1; }
  50.24999999999999% { opacity: 0; }
  99.5% { opacity: 0; }
  100% { opacity: 1; }
}</style><style id="blink-fe3dd9b3-bb3e-4f9a-bbb0-72e3fbce6b71" data-anikit="">@keyframes blink-fe3dd9b3-bb3e-4f9a-bbb0-72e3fbce6b71 {
  0% { opacity: 1; }
  49.75% { opacity: 1; }
  50.24999999999999% { opacity: 0; }
  99.5% { opacity: 0; }
  100% { opacity: 1; }
}</style><style id="blink-fe3dd9b3-bb3e-4f9a-bbb0-72e3fbce6b71" data-anikit="">@keyframes blink-fe3dd9b3-bb3e-4f9a-bbb0-72e3fbce6b71 {
  0% { opacity: 1; }
  49.75% { opacity: 1; }
  50.24999999999999% { opacity: 0; }
  99.5% { opacity: 0; }
  100% { opacity: 1; }
}</style><style id="bounce-3a5b7959-d9dd-4d06-af13-6384f867bc6d" data-anikit="">@keyframes bounce-3a5b7959-d9dd-4d06-af13-6384f867bc6d
{
  0% {
    animation-timing-function: cubic-bezier(0.1361,0.2514,0.2175,0.8786);
    transform: translate(0,0px) scaleY(1);
  }
  37% {
    animation-timing-function: cubic-bezier(0.7674,0.1844,0.8382,0.7157);
    transform: translate(0,-3.996px) scaleY(1);
  }
  72% {
    animation-timing-function: cubic-bezier(0.2671,0.5147,0.5115,0.9776);
    transform: translate(0,0px) scaleY(1);
  }
  87% {
    animation-timing-function: cubic-bezier(0.4769,0.1313,0.7292,0.5404);
    transform: translate(0,2.9429999999999996px) scaleY(0.891);
  }
  100% {
    transform: translate(0,0px) scaleY(1);
  }
}</style><style id="bounce-685e0825-da2b-4d0b-b590-22f9de4d2801" data-anikit="">@keyframes bounce-685e0825-da2b-4d0b-b590-22f9de4d2801
{
  0% {
    animation-timing-function: cubic-bezier(0.1361,0.2514,0.2175,0.8786);
    transform: translate(0,0px) scaleY(1);
  }
  37% {
    animation-timing-function: cubic-bezier(0.7674,0.1844,0.8382,0.7157);
    transform: translate(0,-3.996px) scaleY(1);
  }
  72% {
    animation-timing-function: cubic-bezier(0.2671,0.5147,0.5115,0.9776);
    transform: translate(0,0px) scaleY(1);
  }
  87% {
    animation-timing-function: cubic-bezier(0.4769,0.1313,0.7292,0.5404);
    transform: translate(0,2.9429999999999996px) scaleY(0.891);
  }
  100% {
    transform: translate(0,0px) scaleY(1);
  }
}</style></svg>